<svg width="119" height="160" viewBox="0 0 119 160" fill="none" xmlns="http://www.w3.org/2000/svg">
<rect x="27" width="64" height="30" rx="10" fill="white"/>
<line x1="32.2877" y1="121.026" x2="6.99708" y2="154.952" stroke="white" stroke-width="10" stroke-linecap="round"/>
<line x1="5" y1="-5" x2="47.3158" y2="-5" transform="matrix(0.597665 0.801746 0.801746 -0.597665 87 114.029)" stroke="white" stroke-width="10" stroke-linecap="round"/>
<line x1="26.1746" y1="138" x2="93.1746" y2="138" stroke="white" stroke-width="10" stroke-linecap="round"/>
<path d="M92 12C103.046 12 112 20.9543 112 32V117C112 122.523 107.523 127 102 127H17C11.4772 127 7 122.523 7 117V32C7 20.9543 15.9543 12 27 12H92ZM80.623 104.988C79.5697 104.175 77.9907 104.414 77.0938 105.521L76.9688 105.656C76.8427 105.789 76.6299 106.002 76.3252 106.269C75.7154 106.803 74.7371 107.555 73.3496 108.321C70.5927 109.843 66.1308 111.469 59.5781 111.469C53.7191 111.469 49.5123 109.864 46.7939 108.3C45.4302 107.515 44.4363 106.737 43.7969 106.172C43.4777 105.89 43.2478 105.661 43.1055 105.513C43.0344 105.438 42.9844 105.383 42.957 105.353C42.9452 105.339 42.9371 105.33 42.9336 105.326C42.0836 104.309 40.5155 104.228 39.4248 105.145C38.331 106.064 38.1311 107.641 38.9795 108.666L40.8438 107.099C38.9802 108.666 38.9807 108.667 38.9814 108.668L38.9834 108.67C38.9845 108.671 38.9861 108.673 38.9873 108.675C38.9899 108.678 38.9929 108.682 38.9961 108.686C39.0029 108.694 39.0119 108.703 39.0215 108.714C39.0412 108.737 39.0671 108.767 39.0986 108.803C39.1617 108.874 39.2486 108.969 39.3594 109.085C39.5816 109.317 39.9017 109.633 40.3203 110.003C41.1574 110.743 42.3966 111.706 44.0576 112.662C47.3895 114.579 52.4031 116.456 59.2197 116.456C66.6485 116.456 71.9882 114.6 75.5361 112.642C77.3008 111.667 78.6019 110.678 79.4824 109.907C79.9224 109.522 80.2574 109.19 80.4932 108.942C80.6111 108.818 80.7052 108.715 80.7744 108.636C80.8087 108.597 80.8368 108.563 80.8594 108.536C80.8707 108.523 80.8812 108.51 80.8896 108.5C80.8937 108.495 80.898 108.49 80.9014 108.486C80.903 108.484 80.9038 108.481 80.9053 108.479C80.906 108.479 80.9077 108.477 80.9082 108.477C80.9044 108.472 80.8119 108.399 79 107L80.9102 108.475C81.8064 107.364 81.678 105.803 80.623 104.988ZM94.6875 77.7227C93.6429 76.5039 91.833 76.329 90.5771 77.2998L90.457 77.3965L80.9453 85.5498C80.7516 85.6881 80.5691 85.8493 80.4072 86.0381C79.9784 86.5385 79.7458 87.1398 79.6973 87.75C79.6952 87.774 79.6939 87.7982 79.6924 87.8223C79.6891 87.8815 79.6873 87.9407 79.6875 88C79.6873 88.0589 79.6891 88.1178 79.6924 88.1768C79.6939 88.2008 79.6952 88.225 79.6973 88.249C79.7457 88.8596 79.9782 89.4613 80.4072 89.9619C80.5689 90.1506 80.7518 90.311 80.9453 90.4492L90.457 98.6035L90.5771 98.7002C91.8329 99.671 93.6429 99.496 94.6875 98.2773C95.7318 97.0587 95.6277 95.2439 94.4766 94.1514L94.3623 94.0479L87.3057 88L94.3623 81.9521L94.4766 81.8486C95.6277 80.7562 95.7318 78.9413 94.6875 77.7227ZM33 79C28.0294 79 24 83.0294 24 88C24 92.9706 28.0294 97 33 97C37.9706 97 42 92.9706 42 88C42 83.0294 37.9706 79 33 79ZM22 32C19.7909 32 18 33.7909 18 36V64C18 66.2091 19.7909 68 22 68H97C99.2091 68 101 66.2091 101 64V36C101 33.7909 99.2091 32 97 32H22Z" fill="white"/>
</svg>
